<?xml version="1.0" encoding="UTF-8" standalone="no"?>
<!-- Created with Inkscape (http://www.inkscape.org/) -->

<svg
   width="140.84552mm"
   height="140.8455mm"
   viewBox="0 0 140.84552 140.8455"
   version="1.1"
   id="svg5"
   xml:space="preserve"
   xmlns:inkscape="http://www.inkscape.org/namespaces/inkscape"
   xmlns:sodipodi="http://sodipodi.sourceforge.net/DTD/sodipodi-0.dtd"
   xmlns="http://www.w3.org/2000/svg"
   xmlns:svg="http://www.w3.org/2000/svg"><sodipodi:namedview
     id="namedview7"
     pagecolor="#505050"
     bordercolor="#ffffff"
     borderopacity="1"
     inkscape:showpageshadow="0"
     inkscape:pageopacity="0"
     inkscape:pagecheckerboard="1"
     inkscape:deskcolor="#505050"
     inkscape:document-units="mm"
     showgrid="false" /><defs
     id="defs2" /><g
     inkscape:label="Layer 1"
     inkscape:groupmode="layer"
     id="layer1"
     transform="translate(-37.516885,-47.786868)"><rect
       style="fill:#d1d1d1;fill-opacity:1;stroke-width:2.19604;stroke-linecap:square;stroke-linejoin:bevel"
       id="rect356"
       width="140.8455"
       height="140.8455"
       x="37.516884"
       y="47.786869"
       ry="18.129665"
       inkscape:export-filename="qrcodegen.svg"
       inkscape:export-xdpi="96"
       inkscape:export-ydpi="96" /></g><g
     id="g194"
     transform="matrix(0.26458333,0,0,0.26458333,11.156085,2.6894213)"><path
       class="fa-secondary"
       opacity="0.4"
       d="m 0,80 v 96 c 0,26.5 21.5,48 48,48 h 96 c 26.5,0 48,-21.5 48,-48 V 80 C 192,53.5 170.5,32 144,32 H 48 C 21.5,32 0,53.5 0,80 Z m 0,256 v 96 c 0,26.5 21.5,48 48,48 h 96 c 26.5,0 48,-21.5 48,-48 v -96 c 0,-26.5 -21.5,-48 -48,-48 H 48 C 21.5,288 0,309.5 0,336 Z M 64,96 h 64 v 64 H 64 Z m 0,256 h 64 v 64 H 64 Z M 256,80 v 96 c 0,26.5 21.5,48 48,48 h 96 c 26.5,0 48,-21.5 48,-48 V 80 C 448,53.5 426.5,32 400,32 h -96 c -26.5,0 -48,21.5 -48,48 z m 64,16 h 64 v 64 h -64 z"
       id="path182"
       style="opacity:1;fill:#000000;fill-opacity:1" /><path
       class="fa-primary"
       d="M 256,464 V 304 c 0,-8.8 7.2,-16 16,-16 h 64 c 8.8,0 16,7.2 16,16 0,8.8 7.2,16 16,16 h 32 c 8.8,0 16,-7.2 16,-16 0,-8.8 7.2,-16 16,-16 8.8,0 16,7.2 16,16 v 96 c 0,8.8 -7.2,16 -16,16 h -64 c -8.8,0 -16,-7.2 -16,-16 0,-8.8 -7.2,-16 -16,-16 -8.8,0 -16,7.2 -16,16 v 64 c 0,8.8 -7.2,16 -16,16 h -32 c -8.8,0 -16,-7.2 -16,-16 z m 128,0 a 16,16 0 1 1 -32,0 16,16 0 1 1 32,0 z m 64,0 a 16,16 0 1 1 -32,0 16,16 0 1 1 32,0 z"
       id="path184" /></g></svg>
